<svg xmlns="http://www.w3.org/2000/svg" preserveAspectRatio="xMidYMid meet" viewBox="0 0 1904 300"><defs><linearGradient x1=".0046285%" y1="49.9990596%" x2="100%" y2="49.9990596%" id="a"><stop stop-color="#AFAEAE" offset="0%"/><stop stop-color="#F7F7F7" offset="100%"/></linearGradient><linearGradient x1="46.1038817%" y1="49.9990596%" x2="53.6900296%" y2="49.9999751%" id="b"><stop stop-color="#FFF" offset="0%"/><stop stop-color="#F6F6F6" offset="100%"/></linearGradient></defs><g fill="none" fill-rule="nonzero"><path d="M408.3229076 239.032086c4.1758867 0 6.3866503-2.459893 6.3866503-6.395722V89.2245989h34.3896561c4.175886 0 6.38665-2.2139037 6.38665-6.3957219V63.39572193C455.485864 59.45989305 453.2751 57 449.099214 57H348.38665036C344.45640398 57 342 59.45989305 342 63.39572193V82.828877c0 4.1818182 2.45640398 6.3957219 6.38665036 6.3957219h34.38965574V232.636364c0 3.935829 2.2107636 6.395722 6.3866504 6.395722h19.1599511zM513.702638 241c29.231208 0 53.303967-23.860963 53.303967-53.379679v-65.1871659c0-3.9358289-2.456404-6.3957219-6.632291-6.3957219h-19.159951c-3.930246 0-6.38665 2.459893-6.38665 6.3957219v65.1871659c0 11.561497-9.579976 21.401069-21.125075 21.401069-11.790739 0-21.370714-9.839572-21.370714-21.401069v-65.1871659c0-3.9358289-2.456404-6.3957219-6.386651-6.3957219h-19.159951c-3.930246 0-6.38665 2.459893-6.38665 6.3957219v65.1871659c0 29.518716 23.827119 53.379679 53.303966 53.379679zm100.712564-1.967914c3.930246 0 6.38665-2.459893 6.38665-6.395722V166.71123c0-11.8074867 9.334335-20.171123 21.125074-20.171123h8.597414c4.175887 0 6.632291-2.2139038 6.632291-6.395722v-17.7112299c0-3.9358289-2.456404-6.3957219-6.632291-6.3957219h-10.808177c-9.579976 0-18.42303 2.2139037-25.546602 7.8716577v-2.2139037c0-3.6898396-1.965123-5.657754-5.404088-5.657754h-13.510222c-3.930247 0-6.386651 2.459893-6.386651 6.3957219V232.636364c0 3.935829 2.456404 6.395722 6.386651 6.395722h19.159951zm123.31148 0c4.175887 0 6.38665-2.459893 6.38665-6.395722v-19.433155c0-4.181819-2.210763-6.395722-6.38665-6.395722h-14.984064c-8.843055 0-15.229705-6.641712-15.229705-15.497327v-47.2299461h31.441971c3.930246 0 6.14101-2.2139037 6.14101-6.1497326v-15.7433155c0-3.9358289-2.210764-6.1497326-6.14101-6.1497326h-31.441971V83.3208556c0-3.9358289-2.456404-6.3957219-6.386651-6.3957219h-19.405591c-3.930246 0-6.38665 2.459893-6.38665 6.3957219V191.064171c0 31.73262 17.931749 47.967915 46.426035 47.967915h15.966626zm71.481356 0c3.930246 0 6.38665-2.459893 6.38665-6.395722v-19.433155c0-4.181819-1.473842-6.395722-5.158448-6.395722h-2.702045c-7.123571 0-12.036379-4.919786-12.036379-13.283423V73.2352941c0-3.9358289-2.456404-6.39572191-6.386651-6.39572191h-19.405591c-3.930246 0-6.38665 2.45989301-6.38665 6.39572191V193.032086c0 32.224598 13.510222 46 43.47835 46h2.210764zM894.445256 241c14.492783 0 31.687611-4.427807 47.408597-16.727273 3.438965-2.459893 3.684606-5.657754.982561-9.101604l-10.808177-12.791444c-2.456404-3.197861-5.404089-3.44385-8.843054-1.475936-7.369212 5.165776-17.194828 9.839573-28.248646 9.839573-13.264582 0-27.020444-7.37968-32.915814-23.122995h86.21978c4.175887 0 6.632291-2.213904 6.386651-6.395722-2.456404-41.3262033-28.248646-67.1550803-62.392662-67.1550803-35.372217 0-63.129582 27.3048129-63.129582 62.2352943 0 35.17647 28.003005 64.695187 65.340346 64.695187zm25.546601-77.97861h-57.725493c2.456404-13.0374328 14.492783-22.3850264 29.231207-22.3850264 15.229705 0 26.037882 10.3315508 28.494286 22.3850264zm82.535174 76.010696c3.930247 0 6.386651-2.459893 6.386651-6.395722V117.513369l81.552612 117.582888c1.719483 2.951871 4.175887 3.935829 7.369212 3.935829h13.755862c4.175887 0 6.632291-2.459893 6.632291-6.395722V63.39572193c0-3.93582888-2.456404-6.39572193-6.632291-6.39572193h-19.159951c-3.930246 0-6.38665 2.45989305-6.38665 6.39572193V179.010695l-82.043893-118.07486612C1002.03575 57.98395722 999.579346 57 996.386021 57H983.12144c-3.930247 0-6.386651 2.45989305-6.386651 6.39572193V232.636364c0 3.935829 2.456404 6.395722 6.386651 6.395722h19.405591zM1204.443439 241c14.492783 0 31.687611-4.427807 47.408597-16.727273 3.438965-2.459893 3.684606-5.657754.982561-9.101604l-10.808177-12.791444c-2.456404-3.197861-5.404089-3.44385-8.843055-1.475936-7.369212 5.165776-17.194828 9.839573-28.248645 9.839573-13.264582 0-27.020444-7.37968-32.915814-23.122995h86.21978c4.175887 0 6.632291-2.213904 6.38665-6.395722-2.456404-41.3262033-28.248645-67.1550803-62.392661-67.1550803-35.372217 0-63.129582 27.3048129-63.129582 62.2352943 0 35.17647 28.003005 64.695187 65.340346 64.695187zm25.546601-77.97861h-57.725493c2.456404-13.0374328 14.492783-22.3850264 29.231207-22.3850264 15.229705 0 26.037882 10.3315508 28.494286 22.3850264zm117.90739 76.010696c4.17589 0 6.38665-2.459893 6.38665-6.395722v-19.433155c0-4.181819-2.21076-6.395722-6.38665-6.395722h-14.984063c-8.843054 0-15.229705-6.641712-15.229705-15.497327v-47.2299461h31.441968c3.93025 0 6.14101-2.2139037 6.14101-6.1497326v-15.7433155c0-3.9358289-2.21076-6.1497326-6.14101-6.1497326h-31.441968V83.3208556c0-3.9358289-2.456404-6.3957219-6.38665-6.3957219h-19.405591c-3.930247 0-6.386651 2.459893-6.386651 6.3957219V191.064171c0 31.73262 17.931749 47.967915 46.426036 47.967915h15.966624zm84.00902 0c3.43896 0 5.89537-1.721926 7.12357-4.919787l24.3184-63.219251 24.07276 63.219251c1.2282 3.443851 3.43896 4.919787 6.87793 4.919787h11.29946c3.43896 0 5.89537-1.721926 7.12357-4.919787l42.98707-110.941176c1.71948-4.4278075-.24564-7.1336898-4.66717-7.1336898h-21.12507c-3.43897 0-5.64973 1.4759358-6.87793 4.9197861L1498.475 186.390374l-24.3184-61.9893045c-.98257-2.7058823-2.94769-3.9358289-5.89537-3.9358289l-10.07126-.2459893c-2.70204 0-4.91281 1.2299466-5.89537 3.9358289l-24.3184 62.2352938-24.56404-65.4331547c-1.2282-3.4438503-3.43896-4.9197861-6.87793-4.9197861h-21.37071c-4.66717 0-6.38665 2.7058823-4.91281 7.1336898l43.47835 110.941176c1.2282 3.197861 3.6846 4.919787 7.12357 4.919787h11.05382zM1627.4362 241c34.88094 0 63.37523-28.534759 63.37523-63.465241 0-34.9304809-28.49429-63.4652403-63.37523-63.4652403-34.88093 0-63.37522 28.5347594-63.37522 63.4652403 0 34.930482 28.49429 63.465241 63.37522 63.465241zm0-32.224599c-17.19482 0-31.19633-14.02139-31.19633-31.240642 0-17.219251 14.00151-30.994652 31.19633-30.994652 17.19483 0 30.95069 13.775401 30.95069 30.994652 0 17.219252-13.75586 31.240642-30.95069 31.240642zm109.80126 30.256685c3.93025 0 6.38665-2.459893 6.38665-6.395722V166.71123c0-11.8074867 9.33434-20.171123 21.12508-20.171123h8.59741c4.17589 0 6.63229-2.2139038 6.63229-6.395722v-17.7112299c0-3.9358289-2.4564-6.3957219-6.63229-6.3957219h-10.80818c-9.57997 0-18.42303 2.2139037-25.5466 7.8716577v-2.2139037c0-3.6898396-1.96512-5.657754-5.40409-5.657754h-13.51022c-3.93024 0-6.38665 2.459893-6.38665 6.3957219V232.636364c0 3.935829 2.45641 6.395722 6.38665 6.395722h19.15995zm86.71106 0c3.93025 0 6.38665-2.459893 6.38665-6.395722v-33.454546l5.64973-6.8877 30.70505 42.802139c1.96513 2.705882 4.42153 3.935829 7.61486 3.935829h24.56404c4.9128 0 6.63229-3.443851 3.6846-7.625669l-46.42603-61.989305 40.03938-45.7540104c3.43897-3.9358289 1.71948-7.6256684-3.68461-7.6256684h-23.58147c-2.94769 0-5.40409.9839572-7.61486 3.4438502l-30.95069 35.6684492V73.2352941c0-3.9358289-2.4564-6.39572191-6.38665-6.39572191h-19.40559c-3.93024 0-6.38665 2.45989301-6.38665 6.39572191V232.636364c0 3.935829 2.45641 6.395722 6.38665 6.395722h19.40559z" fill="#FFF"/><path fill="#C5C5C5" opacity=".045308" d="M103.84229 1.50050604V261.838304h-5.2512419V1.50050604z"/><path d="M174 0v261.5c-1.755841-.023335-3.456258-.62773-4.843194-1.721463l-65.470298-56.006554c-1.764167-1.656649-2.741578-4.003775-2.683129-6.443189V58.6280964c-.069175-2.4201689.926754-4.7458635 2.717032-6.3448192l65.664025-50.50771153C170.671773.6548336 172.304584.02670577 174 0z" fill="url(#a)" opacity=".79844204" transform="matrix(-1 0 0 1 275 0)"/><path d="M101 0v261.5c-1.7558414-.023335-3.4562585-.62773-4.8431941-1.721463l-65.4702976-56.006554c-1.7641677-1.656649-2.7415785-4.003775-2.6831295-6.443189V58.6280964c-.0691746-2.4201689.9267539-4.7458635 2.7170319-6.3448192L96.384436 1.77556567C97.6717727.6548336 99.3045842.02670577 101 0z" fill-opacity=".8" fill="url(#b)"/><path d="M95.2287964 71.0490823c3.5616718-2.7321097 8.4758146-2.7321097 12.0374866 0l.10159.0801056 39.471574 31.9913921c.094361.029266.198893.015606.284467-.041881l.28571-.1778 40.387662-23.219546.086679-.0565957c5.801209-3.7348266 14.300328-.3325578 14.607469 6.7790793l.008566.3988854-.002686 126.491769c-.084359 2.569154-1.274997 4.971149-3.147671 6.479446l-91.562107 78.40333-.437265.240066c-4.004158 2.198351-9.1488886 2.112727-12.6320171-.295556l-.2059612-.142404-91.61242911-78.481054C1.1386728 217.907638.08685465 215.639687 0 213.070842V86.802722c0-7.2464049 8.40998023-10.8698562 14.3024409-7.3824557l.4001997.2512657 40.407316 23.229309.2858127.177858c.0714116.047974.156026.065425.2132458.071527L55.663 103.152zM147.096 189.074l-39.643917 33.193921-.161196.129201c-.442593.339507-.906071.636825-1.385242.891954L105.901 286.946l83.529-71.523-42.334-26.349zm-91.683-.007l-42.326 26.312 83.144 71.226.0041884-63.542977c-.2507805-.148933-.4966712-.309885-.7368828-.482854l-.2449053-.182047-.1603159-.128465L55.413 189.067zm45.77874-110.2543749h-.031492L61.6007643 110.91221c-.0485328.037116-.0973203.073731-.1463554.109842l-.8108208.656004-.0019339 69.039419 40.4487648 33.846973.082053.044511c.064657.021707.134686.021707.199343 0l.074436-.042547 40.433293-33.846973v-69.057096L141.189 111.103l-.378511-.276191-39.381643-31.9370258-.08001-.043824c-.061407-.0242716-.121687-.0333341-.157096-.0333341zm91.637468 9.2617244l-40.570599 23.3228275-.197373.126203c-.168083.101812-.338348.198168-.51057.289068L151.549 180.328l41.28 25.693.000208-117.9466505zM9.66878451 88.0625643L9.664 205.992l41.31-25.679.0012128-68.4972c-.2211132-.116563-.4390374-.242094-.6532761-.376608L50.247 111.391 9.66878451 88.0625643z" fill="#FFF"/></g></svg>