<svg xmlns="http://www.w3.org/2000/svg" preserveAspectRatio="xMidYMid meet" viewBox="0 0 600 600"><defs><linearGradient x1=".005%" y1="49.999%" x2="100%" y2="49.999%" id="a"><stop stop-color="#AFAEAE" offset="0%"/><stop stop-color="#F7F7F7" offset="100%"/></linearGradient><linearGradient x1="46.104%" y1="49.999%" x2="53.69%" y2="50%" id="b"><stop stop-color="#FFF" offset="0%"/><stop stop-color="#F6F6F6" offset="100%"/></linearGradient></defs><g fill="none" fill-rule="nonzero"><path fill="#C5C5C5" opacity=".045" d="M305.685 3.001v520.676h-10.503V3z"/><path d="M348 0v523a15.982 15.982 0 01-9.686-3.443L207.373 407.544c-3.528-3.313-5.483-8.008-5.366-12.886V117.256c-.139-4.84 1.853-9.492 5.434-12.69L338.769 3.552A14.402 14.402 0 01348 0z" fill="url(#a)" opacity=".798" transform="matrix(-1 0 0 1 648 0)"/><path d="M202 0v523a15.982 15.982 0 01-9.686-3.443L61.373 407.544c-3.528-3.313-5.483-8.008-5.366-12.886V117.256c-.139-4.84 1.853-9.492 5.434-12.69L192.769 3.552A14.402 14.402 0 01202 0z" fill="url(#b)" opacity=".798" transform="translate(98)"/><path d="M288.458 142.098a19.728 19.728 0 0124.075 0l.203.16 78.948 63.985a.665.665 0 00.564-.086l.571-.355 80.776-46.44.173-.112c11.602-7.47 28.6-.666 29.215 13.558l.017.797-.005 252.984c-.17 5.138-2.55 9.942-6.296 12.959L313.575 596.355l-.874.48c-8.009 4.396-18.298 4.225-25.264-.591l-.412-.285L103.8 438.997c-3.523-3.182-5.626-7.718-5.8-12.855V173.605c0-14.492 16.82-21.74 28.605-14.764l.8.502 80.815 46.459.572.355c.142.096.312.131.426.143l.11.004zM392.193 378.15l-79.289 66.387-.322.258a19.975 19.975 0 01-2.771 1.784l-.01 127.314 167.06-143.045-84.668-52.698zm-183.366-.013l-84.652 52.622L290.462 573.21l.009-127.086a20.002 20.002 0 01-1.634-1.081l-.33-.249-.32-.257-79.36-66.401zm91.556-220.51h-.063l-79.118 64.198c-.113.087-.227.172-.34.255l-1.575 1.277-.004 138.079 80.898 67.694.164.089c.13.043.27.043.399 0l.149-.085 80.866-67.694V223.325l-1.371-1.112-.767-.56-78.763-63.873-.16-.088a.925.925 0 00-.315-.067zm183.275 18.523l-81.14 46.645-.396.253c-.336.203-.676.396-1.021.578l-.003 137.03 82.56 51.386V176.149zm-366.32-.024l-.009 235.859 82.619-51.358.002-136.994a19.963 19.963 0 01-1.137-.648l-.333-.21-81.142-46.649z" fill="#FFF"/></g></svg>